# xmcd CD database file
#
# Track frame offsets:
#	150
#	17593
#	30851
#	52143
#	66138
#	84607
#	104836
#	115826
#	130129
#	145478
#	164619
#	177959
#	188704
#	205276
#	217506
#	220722
#
# Disc length: 3166 seconds
#
# Revision: 0
# Processed by: cddbd v1.5.2PL0 Copyright (c) Steve Scherf et al.
# Submitted via: CDex 1.70beta2
#
DISCID=e50c5c10
DTITLE=Various Artist - Kuusikuutonen
DYEAR=2010
DGENRE=Blues
TTITLE0=Kuusikuutonen - Jussi Raittinen
TTITLE1=Kuin Thelma ja Louise - Jemina ja Selina Sillanp‰‰
TTITLE2=Prinsessa - Raimo Hast
TTITLE3=Bye bye St. Louis - Kristiina Lanki
TTITLE4=Menn‰‰n sitten Memphisiin - Harri Marstio ja Maya Paakkari
TTITLE5=Kyynelten tie - Markku Aro
TTITLE6=Jack Shaw ja Ben Smith - Pekka Myllykoski
TTITLE7=Santa Fe - Matti Esko
TTITLE8=Albuquerquen kirkonkellot - Marko Haavisto
TTITLE9=Aamulla kun her‰‰n (aka This Lonesome GGBlues) - Baby Boy Varhama
TTITLE10=Angel Delgadillo - Mikko Perkoila
TTITLE11=Pelkoa ja inhoa Las Vegasissa - Ismo Haavisto
TTITLE12=Betsyn baari - Kari Veps‰
TTITLE13=Flagstaff, Arizona - Matti Hein‰nen
TTITLE14=Kuusikuutonen reprise - Jussi Raittinen
TTITLE15=Oli tie lauluineen t‰ss‰ - Pirjo Lehti
EXTD=YEAR: 2010
EXTT0=
EXTT1=
EXTT2=
EXTT3=
EXTT4=
EXTT5=
EXTT6=
EXTT7=
EXTT8=
EXTT9=
EXTT10=
EXTT11=
EXTT12=
EXTT13=
EXTT14=
EXTT15=
PLAYORDER=
